<?xml version="1.0" standalone="no"?>
<!DOCTYPE svg PUBLIC "-//W3C//DTD SVG 20010904//EN"
 "http://www.w3.org/TR/2001/REC-SVG-20010904/DTD/svg10.dtd">
<svg version="1.0" xmlns="http://www.w3.org/2000/svg"
 width="100.000000pt" height="100.000000pt" viewBox="0 0 100.000000 100.000000"
 preserveAspectRatio="xMidYMid meet">

<g transform="translate(0.000000,100.000000) scale(0.100000,-0.100000)"
fill="#000000" stroke="none">
<path d="M391 989 c-77 -15 -169 -65 -235 -129 -207 -199 -208 -511 -2 -708
126 -122 287 -166 455 -127 140 33 272 140 332 269 172 368 -149 774 -550 695z
m214 -34 c250 -65 403 -317 340 -558 -45 -172 -169 -297 -340 -342 -244 -63
-494 89 -560 340 -28 107 -14 218 40 325 25 49 81 120 94 120 4 0 18 -21 30
-47 30 -64 56 -97 70 -89 8 5 7 15 -4 36 -20 39 -19 45 10 58 37 17 41 16 55
-19 8 -19 18 -28 27 -25 8 4 17 6 19 6 6 0 -51 110 -69 134 -22 30 -40 11 -22
-24 15 -29 15 -30 -17 -46 -30 -15 -32 -15 -44 2 -8 11 -18 24 -23 31 -11 12
4 25 77 62 98 50 213 63 317 36z"/>
<path d="M487 918 c-3 -13 -9 -51 -13 -85 -5 -53 -4 -63 9 -63 10 0 17 17 24
58 l9 57 29 -62 c40 -90 59 -86 74 14 8 51 8 80 1 87 -15 15 -22 2 -27 -49 -3
-25 -8 -45 -12 -45 -3 0 -16 24 -27 53 -24 58 -57 76 -67 35z"/>
<path d="M385 918 c2 -7 9 -46 15 -85 8 -51 16 -73 26 -73 17 0 17 11 3 101
-10 56 -15 69 -30 69 -10 0 -17 -6 -14 -12z"/>
<path d="M684 888 c-4 -6 -3 -13 2 -15 42 -15 41 -17 -23 -119 -11 -18 -11
-23 1 -33 12 -10 20 -2 47 46 41 73 36 69 60 54 12 -7 23 -10 26 -7 12 12 -8
33 -55 59 -37 20 -53 24 -58 15z"/>
<path d="M421 738 c-67 -15 -145 -97 -160 -168 -19 -88 7 -170 73 -227 46 -41
95 -56 171 -51 116 7 196 87 203 203 5 76 -10 125 -51 171 -57 65 -147 93
-236 72z m159 -33 c33 -17 88 -78 101 -112 27 -70 2 -180 -53 -229 -59 -54
-164 -72 -231 -38 -81 41 -120 102 -121 189 -1 95 58 176 150 205 36 12 118 3
154 -15z"/>
<path d="M443 608 c-26 -12 -27 -16 -13 -38 7 -12 12 -12 22 -2 15 15 44 16
54 1 3 -6 -6 -23 -20 -38 -29 -30 -34 -51 -12 -51 20 0 76 67 76 90 0 23 -36
50 -65 49 -11 0 -30 -5 -42 -11z"/>
<path d="M454 439 c-9 -15 12 -33 30 -26 9 4 16 13 16 22 0 17 -35 21 -46 4z"/>
</g>
</svg>
